<svg xmlns="http://www.w3.org/2000/svg" xmlns:xlink="http://www.w3.org/1999/xlink" width="930px" height="640px" viewBox="0 0  930 640" preserveAspectRatio="xMidYMid meet" ><rect id="svgEditorBackground" x="0" y="0" width="930" height="640" style="fill: none; stroke: none;"/><defs id="svgEditorDefs"><polygon id="svgEditorShapeDefs" style="fill:khaki;stroke:black;vector-effect:non-scaling-stroke;stroke-width:1px;"/></defs><rect x="267" y="212" style="fill:khaki;stroke:black;stroke-width:1px;" id="e4_rectangle" width="169" height="201"/><path d="M-2.1649484536082486,-4.742268041237111l-1.9999999999999982,2v4l1.9999999999999996,2h4l2,-1.9999999999999996v-4l-2,-2.0000000000000004Z" style="fill:khaki; stroke:black; vector-effect:non-scaling-stroke;stroke-width:1px;" id="e7_shape" transform="matrix(12.125 0 0 12.125 350.5 318.5)"/><path d="M57.6298530432767,-3.5217756771832347v-1.5000000000000009a2,2,0,0,0,-2,-1.9999999999999964h-4a2,2,0,0,0,-2,2v2.9999999999999982a2,2,0,0,0,2,2.000000000000002h4a2,2,0,0,0,2,-2.000000000000002Z" style="fill:khaki; stroke:black; vector-effect:non-scaling-stroke;stroke-width:1px;" id="e10_shape" transform="matrix(3.72927 0 0 28.9627 68.9734 413.625)"/><path d="M103.15850846185694,-3.5346497904878094v-1.5000000000000027a2,2,0,0,0,-2,-2h-4a2,2,0,0,0,-2,2v3.0000000000000036a2,2,0,0,0,2,2.0000000000000027h4a2,2,0,0,0,2,-2.000000000000005Z" style="fill:khaki; stroke:black; vector-effect:non-scaling-stroke;stroke-width:1px;" id="e14_shape" transform="matrix(3.72927 0 0 28.9627 68.9734 413.625)"/><line id="e11_line" x1="254" y1="237" x2="281" y2="238" style="stroke:black;fill:none;stroke-width:1px;"/><line id="e12_line" x1="255" y1="254" x2="283" y2="255" style="stroke:black;fill:none;stroke-width:1px;"/><line id="e2_line" x1="255" y1="273" x2="283" y2="274" style="stroke:black;fill:none;stroke-width:1px;"/><line id="e1_line" x1="254" y1="294" x2="282" y2="295" style="stroke:black;fill:none;stroke-width:1px;"/><line id="e3_line" x1="254" y1="313" x2="282" y2="314" style="stroke:black;fill:none;stroke-width:1px;"/><line id="e4_line" x1="256" y1="333" x2="284" y2="334" style="stroke:black;fill:none;stroke-width:1px;"/><line id="e5_line" x1="255" y1="354" x2="283" y2="355" style="stroke:black;fill:none;stroke-width:1px;"/><line id="e6_line" x1="256" y1="374" x2="284" y2="375" style="stroke:black;fill:none;stroke-width:1px;"/><line id="e7_line" x1="254" y1="395" x2="282" y2="396" style="stroke:black;fill:none;stroke-width:1px;"/><line id="e14_line" x1="258" y1="223" x2="279" y2="223" style="stroke:black;fill:none;stroke-width:1px;"/><line id="e15_line" x1="260" y1="407" x2="279" y2="407" style="stroke:black;fill:none;stroke-width:1px;"/><line id="e16_line" x1="429" y1="218" x2="449" y2="219" style="stroke:black;fill:none;stroke-width:1px;"/><line id="e17_line" x1="425" y1="231" x2="451" y2="233" style="stroke:black;fill:none;stroke-width:1px;"/><line id="e8_line" x1="426" y1="247" x2="452" y2="249" style="stroke:black;fill:none;stroke-width:1px;"/><line id="e9_line" x1="426" y1="264" x2="452" y2="266" style="stroke:black;fill:none;stroke-width:1px;" transform="matrix(0.985528 -0.0620921 0.0620921 0.985528 -10.7555 31.4067)"/><line id="e18_line" x1="427.4688720703125" y1="280.56524658203125" x2="453.4688720703125" y2="282.56524658203125" style="stroke:black;fill:none;stroke-width:1px;" transform="matrix(0.985528 -0.0620921 0.0620921 0.985528 -10.7555 31.4067)"/><line id="e10_line" x1="424.9586486816406" y1="295.86505126953125" x2="450.9586486816406" y2="297.86505126953125" style="stroke:black;fill:none;stroke-width:1px;" transform="matrix(0.985528 -0.0620921 0.0620921 0.985528 -10.7555 31.4067)"/><line id="e13_line" x1="421.43768310546875" y1="311.1011962890625" x2="447.43768310546875" y2="313.1011962890625" style="stroke:black;fill:none;stroke-width:1px;" transform="matrix(0.985528 -0.0620921 0.0620921 0.985528 -10.7555 31.4067)"/><line id="e19_line" x1="424.67303466796875" y1="331.8365783691406" x2="450.67303466796875" y2="333.8365783691406" style="stroke:black;fill:none;stroke-width:1px;" transform="matrix(0.985528 -0.0620921 0.0620921 0.985528 -10.7555 31.4067)"/><line id="e20_line" x1="419.9504089355469" y1="350.0410461425781" x2="445.9504089355469" y2="352.0410461425781" style="stroke:black;fill:none;stroke-width:1px;" transform="matrix(0.985528 -0.0620921 0.0620921 0.985528 -10.7555 31.4067)"/><line id="e21_line" x1="420.9733581542969" y1="373.6810607910156" x2="446.9733581542969" y2="375.6810607910156" style="stroke:black;fill:none;stroke-width:1px;" transform="matrix(0.985528 -0.0620921 0.0620921 0.985528 -10.7555 31.4067)"/><line id="e22_line" x1="418.272216796875" y1="392.0129089355469" x2="444.272216796875" y2="394.0129089355469" style="stroke:black;fill:none;stroke-width:1px;" transform="matrix(0.985528 -0.0620921 0.0620921 0.985528 -10.7555 31.4067)"/><line id="e23_line" x1="429" y1="406" x2="449" y2="405" style="stroke:black;fill:none;stroke-width:1px;"/><circle id="e25_circle" cx="346" cy="310" style="fill:khaki;stroke:black;stroke-width:1px;" r="29.0688837075"/><rect x="335" y="336" style="fill:khaki;stroke:black;stroke-width:1px;" id="e26_rectangle" width="21" height="7"/><line id="e27_line" x1="340" y1="338" x2="341" y2="343" style="stroke:black;fill:none;stroke-width:1px;"/><line id="e24_line" x1="345" y1="337" x2="346" y2="342" style="stroke:black;fill:none;stroke-width:1px;"/><line id="e25_line" x1="350" y1="337" x2="351" y2="342" style="stroke:black;fill:none;stroke-width:1px;"/></svg>